<mxfile host="app.diagrams.net" modified="2022-04-06T21:56:14.131Z" agent="5.0 (Windows NT 10.0; Win64; x64) AppleWebKit/537.36 (KHTML, like Gecko) Chrome/99.0.4844.84 Safari/537.36" etag="_hEDA8y014O2fpuhCWqt" version="17.4.0" type="github">
  <diagram id="z8fUBfOabGOkTEecKIYW" name="Leasing">
    <mxGraphModel dx="2842" dy="1007" grid="1" gridSize="10" guides="1" tooltips="1" connect="1" arrows="1" fold="1" page="1" pageScale="1" pageWidth="827" pageHeight="1169" background="#F4F1DE" math="0" shadow="0">
      <root>
        <mxCell id="0" />
        <mxCell id="1" parent="0" />
        <mxCell id="_oelreiNcYr4ekF7kroy-3" value="" style="edgeStyle=orthogonalEdgeStyle;orthogonalLoop=1;jettySize=auto;html=1;labelBackgroundColor=#F4F1DE;strokeColor=#E07A5F;fontColor=#393C56;rounded=1;" edge="1" parent="1" source="_oelreiNcYr4ekF7kroy-1" target="_oelreiNcYr4ekF7kroy-2">
          <mxGeometry relative="1" as="geometry" />
        </mxCell>
        <mxCell id="_oelreiNcYr4ekF7kroy-1" value="Arrendadora recaba documentación del cliente" style="whiteSpace=wrap;html=1;fillColor=#F2CC8F;strokeColor=#E07A5F;fontColor=#393C56;rounded=1;" vertex="1" parent="1">
          <mxGeometry x="220" y="140" width="120" height="60" as="geometry" />
        </mxCell>
        <mxCell id="_oelreiNcYr4ekF7kroy-7" value="" style="edgeStyle=orthogonalEdgeStyle;orthogonalLoop=1;jettySize=auto;html=1;labelBackgroundColor=#F4F1DE;strokeColor=#E07A5F;fontColor=#393C56;rounded=1;" edge="1" parent="1" source="_oelreiNcYr4ekF7kroy-2" target="_oelreiNcYr4ekF7kroy-6">
          <mxGeometry relative="1" as="geometry" />
        </mxCell>
        <mxCell id="_oelreiNcYr4ekF7kroy-9" value="" style="edgeStyle=orthogonalEdgeStyle;orthogonalLoop=1;jettySize=auto;html=1;labelBackgroundColor=#F4F1DE;strokeColor=#E07A5F;fontColor=#393C56;rounded=1;" edge="1" parent="1" source="_oelreiNcYr4ekF7kroy-2" target="_oelreiNcYr4ekF7kroy-8">
          <mxGeometry relative="1" as="geometry" />
        </mxCell>
        <mxCell id="_oelreiNcYr4ekF7kroy-2" value="Documentación se traslada a Summa" style="whiteSpace=wrap;html=1;fillColor=#F2CC8F;strokeColor=#E07A5F;fontColor=#393C56;rounded=1;" vertex="1" parent="1">
          <mxGeometry x="220" y="240" width="120" height="60" as="geometry" />
        </mxCell>
        <mxCell id="_oelreiNcYr4ekF7kroy-12" value="" style="edgeStyle=orthogonalEdgeStyle;orthogonalLoop=1;jettySize=auto;html=1;labelBackgroundColor=#F4F1DE;strokeColor=#E07A5F;fontColor=#393C56;rounded=1;" edge="1" parent="1" source="_oelreiNcYr4ekF7kroy-6" target="_oelreiNcYr4ekF7kroy-11">
          <mxGeometry relative="1" as="geometry" />
        </mxCell>
        <mxCell id="_oelreiNcYr4ekF7kroy-6" value="Persona Individual" style="whiteSpace=wrap;html=1;fillColor=#F2CC8F;strokeColor=#E07A5F;fontColor=#393C56;rounded=1;" vertex="1" parent="1">
          <mxGeometry x="140" y="340" width="120" height="60" as="geometry" />
        </mxCell>
        <mxCell id="_oelreiNcYr4ekF7kroy-13" style="edgeStyle=orthogonalEdgeStyle;orthogonalLoop=1;jettySize=auto;html=1;labelBackgroundColor=#F4F1DE;strokeColor=#E07A5F;fontColor=#393C56;rounded=1;" edge="1" parent="1" source="_oelreiNcYr4ekF7kroy-8" target="_oelreiNcYr4ekF7kroy-11">
          <mxGeometry relative="1" as="geometry" />
        </mxCell>
        <mxCell id="_oelreiNcYr4ekF7kroy-8" value="Persona Jurídica" style="whiteSpace=wrap;html=1;fillColor=#F2CC8F;strokeColor=#E07A5F;fontColor=#393C56;rounded=1;" vertex="1" parent="1">
          <mxGeometry x="300" y="340" width="120" height="60" as="geometry" />
        </mxCell>
        <mxCell id="_oelreiNcYr4ekF7kroy-17" value="" style="edgeStyle=orthogonalEdgeStyle;orthogonalLoop=1;jettySize=auto;html=1;labelBackgroundColor=#F4F1DE;strokeColor=#E07A5F;fontColor=#393C56;rounded=1;" edge="1" parent="1" source="_oelreiNcYr4ekF7kroy-11" target="_oelreiNcYr4ekF7kroy-16">
          <mxGeometry relative="1" as="geometry" />
        </mxCell>
        <mxCell id="_oelreiNcYr4ekF7kroy-11" value="Gestión de riesgos" style="whiteSpace=wrap;html=1;fillColor=#F2CC8F;strokeColor=#E07A5F;fontColor=#393C56;rounded=1;" vertex="1" parent="1">
          <mxGeometry x="220" y="440" width="120" height="60" as="geometry" />
        </mxCell>
        <mxCell id="_oelreiNcYr4ekF7kroy-19" value="" style="edgeStyle=orthogonalEdgeStyle;orthogonalLoop=1;jettySize=auto;html=1;labelBackgroundColor=#F4F1DE;strokeColor=#E07A5F;fontColor=#393C56;rounded=1;" edge="1" parent="1" source="_oelreiNcYr4ekF7kroy-16" target="_oelreiNcYr4ekF7kroy-18">
          <mxGeometry relative="1" as="geometry" />
        </mxCell>
        <mxCell id="_oelreiNcYr4ekF7kroy-16" value="Análisis AE" style="whiteSpace=wrap;html=1;fillColor=#F2CC8F;strokeColor=#E07A5F;fontColor=#393C56;rounded=1;" vertex="1" parent="1">
          <mxGeometry x="220" y="540" width="120" height="60" as="geometry" />
        </mxCell>
        <mxCell id="_oelreiNcYr4ekF7kroy-21" value="" style="edgeStyle=orthogonalEdgeStyle;orthogonalLoop=1;jettySize=auto;html=1;labelBackgroundColor=#F4F1DE;strokeColor=#E07A5F;fontColor=#393C56;rounded=1;entryX=0.5;entryY=0;entryDx=0;entryDy=0;" edge="1" parent="1" source="_oelreiNcYr4ekF7kroy-18" target="_oelreiNcYr4ekF7kroy-110">
          <mxGeometry relative="1" as="geometry">
            <mxPoint x="280" y="740" as="targetPoint" />
          </mxGeometry>
        </mxCell>
        <mxCell id="_oelreiNcYr4ekF7kroy-18" value="Pre-comité de activos y pasivos (Prealco)" style="whiteSpace=wrap;html=1;fillColor=#F2CC8F;strokeColor=#E07A5F;fontColor=#393C56;rounded=1;" vertex="1" parent="1">
          <mxGeometry x="220" y="640" width="120" height="60" as="geometry" />
        </mxCell>
        <mxCell id="_oelreiNcYr4ekF7kroy-23" value="" style="edgeStyle=orthogonalEdgeStyle;orthogonalLoop=1;jettySize=auto;html=1;labelBackgroundColor=#F4F1DE;strokeColor=#E07A5F;fontColor=#393C56;rounded=1;exitX=0.5;exitY=1;exitDx=0;exitDy=0;" edge="1" parent="1" source="_oelreiNcYr4ekF7kroy-110" target="_oelreiNcYr4ekF7kroy-22">
          <mxGeometry relative="1" as="geometry">
            <mxPoint x="280" y="800" as="sourcePoint" />
          </mxGeometry>
        </mxCell>
        <mxCell id="_oelreiNcYr4ekF7kroy-38" value="Denegado" style="edgeStyle=orthogonalEdgeStyle;orthogonalLoop=1;jettySize=auto;html=1;labelBackgroundColor=#F4F1DE;strokeColor=#E07A5F;fontColor=#393C56;rounded=1;exitX=1;exitY=0.5;exitDx=0;exitDy=0;" edge="1" parent="1" source="_oelreiNcYr4ekF7kroy-110" target="_oelreiNcYr4ekF7kroy-37">
          <mxGeometry relative="1" as="geometry">
            <mxPoint x="340" y="770" as="sourcePoint" />
            <Array as="points" />
            <mxPoint as="offset" />
          </mxGeometry>
        </mxCell>
        <mxCell id="_oelreiNcYr4ekF7kroy-45" style="edgeStyle=orthogonalEdgeStyle;curved=0;rounded=1;sketch=0;orthogonalLoop=1;jettySize=auto;html=1;exitX=0.5;exitY=1;exitDx=0;exitDy=0;fontColor=#393C56;strokeColor=#E07A5F;fillColor=#F2CC8F;entryX=0.5;entryY=0;entryDx=0;entryDy=0;" edge="1" parent="1" source="_oelreiNcYr4ekF7kroy-110" target="_oelreiNcYr4ekF7kroy-43">
          <mxGeometry relative="1" as="geometry">
            <mxPoint x="280" y="800" as="sourcePoint" />
            <Array as="points">
              <mxPoint x="280" y="830" />
              <mxPoint x="530" y="830" />
            </Array>
          </mxGeometry>
        </mxCell>
        <mxCell id="_oelreiNcYr4ekF7kroy-25" value="Aprobado" style="edgeStyle=orthogonalEdgeStyle;orthogonalLoop=1;jettySize=auto;html=1;labelBackgroundColor=#F4F1DE;strokeColor=#E07A5F;fontColor=#393C56;rounded=1;" edge="1" parent="1" source="_oelreiNcYr4ekF7kroy-22" target="_oelreiNcYr4ekF7kroy-24">
          <mxGeometry relative="1" as="geometry" />
        </mxCell>
        <mxCell id="_oelreiNcYr4ekF7kroy-22" value="Documentación y notificación a arrendadora" style="whiteSpace=wrap;html=1;fillColor=#F2CC8F;strokeColor=#E07A5F;fontColor=#393C56;rounded=1;" vertex="1" parent="1">
          <mxGeometry x="220" y="850" width="120" height="60" as="geometry" />
        </mxCell>
        <mxCell id="_oelreiNcYr4ekF7kroy-35" value="Información completa" style="edgeStyle=orthogonalEdgeStyle;orthogonalLoop=1;jettySize=auto;html=1;labelBackgroundColor=#F4F1DE;strokeColor=#E07A5F;fontColor=#393C56;rounded=1;" edge="1" parent="1" source="_oelreiNcYr4ekF7kroy-24" target="_oelreiNcYr4ekF7kroy-34">
          <mxGeometry relative="1" as="geometry" />
        </mxCell>
        <mxCell id="_oelreiNcYr4ekF7kroy-36" value="Información incompleta" style="edgeStyle=orthogonalEdgeStyle;orthogonalLoop=1;jettySize=auto;html=1;entryX=1;entryY=0.5;entryDx=0;entryDy=0;labelBackgroundColor=#F4F1DE;strokeColor=#E07A5F;fontColor=#393C56;rounded=1;exitX=1;exitY=0.5;exitDx=0;exitDy=0;" edge="1" parent="1" source="_oelreiNcYr4ekF7kroy-24" target="_oelreiNcYr4ekF7kroy-22">
          <mxGeometry relative="1" as="geometry">
            <mxPoint x="149" y="880" as="targetPoint" />
            <mxPoint x="400" y="1040" as="sourcePoint" />
            <Array as="points">
              <mxPoint x="440" y="1000" />
              <mxPoint x="440" y="880" />
            </Array>
          </mxGeometry>
        </mxCell>
        <mxCell id="_oelreiNcYr4ekF7kroy-40" value="Arrendadora con&lt;br&gt;información incompleta" style="edgeStyle=orthogonalEdgeStyle;orthogonalLoop=1;jettySize=auto;html=1;labelBackgroundColor=#F4F1DE;strokeColor=#E07A5F;fontColor=#393C56;rounded=1;exitX=0;exitY=0.5;exitDx=0;exitDy=0;" edge="1" parent="1" source="_oelreiNcYr4ekF7kroy-24" target="_oelreiNcYr4ekF7kroy-39">
          <mxGeometry relative="1" as="geometry">
            <mxPoint x="200" y="1020" as="sourcePoint" />
          </mxGeometry>
        </mxCell>
        <mxCell id="_oelreiNcYr4ekF7kroy-24" value="Verificación de documentación" style="whiteSpace=wrap;html=1;fillColor=#F2CC8F;strokeColor=#E07A5F;fontColor=#393C56;rounded=1;" vertex="1" parent="1">
          <mxGeometry x="219" y="970" width="120" height="60" as="geometry" />
        </mxCell>
        <mxCell id="_oelreiNcYr4ekF7kroy-33" value="" style="edgeStyle=orthogonalEdgeStyle;orthogonalLoop=1;jettySize=auto;html=1;labelBackgroundColor=#F4F1DE;strokeColor=#E07A5F;fontColor=#393C56;rounded=1;" edge="1" parent="1" source="_oelreiNcYr4ekF7kroy-32" target="_oelreiNcYr4ekF7kroy-1">
          <mxGeometry relative="1" as="geometry" />
        </mxCell>
        <mxCell id="_oelreiNcYr4ekF7kroy-32" value="&lt;span&gt;Contacto cliente con arrendadora&lt;/span&gt;" style="ellipse;whiteSpace=wrap;html=1;aspect=fixed;fillColor=#e1d5e7;strokeColor=#9673a6;rounded=1;fontColor=#393C56;" vertex="1" parent="1">
          <mxGeometry x="240" y="20" width="80" height="80" as="geometry" />
        </mxCell>
        <mxCell id="_oelreiNcYr4ekF7kroy-42" value="" style="edgeStyle=orthogonalEdgeStyle;curved=0;rounded=1;sketch=0;orthogonalLoop=1;jettySize=auto;html=1;fontColor=#393C56;strokeColor=#E07A5F;fillColor=#F2CC8F;" edge="1" parent="1" source="_oelreiNcYr4ekF7kroy-34" target="_oelreiNcYr4ekF7kroy-41">
          <mxGeometry relative="1" as="geometry" />
        </mxCell>
        <mxCell id="_oelreiNcYr4ekF7kroy-47" value="" style="edgeStyle=orthogonalEdgeStyle;curved=0;rounded=1;sketch=0;orthogonalLoop=1;jettySize=auto;html=1;fontColor=#393C56;strokeColor=#E07A5F;fillColor=#F2CC8F;" edge="1" parent="1" source="_oelreiNcYr4ekF7kroy-34" target="_oelreiNcYr4ekF7kroy-46">
          <mxGeometry relative="1" as="geometry" />
        </mxCell>
        <mxCell id="_oelreiNcYr4ekF7kroy-34" value="Envío de documentación para desembolso" style="whiteSpace=wrap;html=1;fillColor=#F2CC8F;strokeColor=#E07A5F;fontColor=#393C56;rounded=1;" vertex="1" parent="1">
          <mxGeometry x="219" y="1100" width="120" height="60" as="geometry" />
        </mxCell>
        <mxCell id="_oelreiNcYr4ekF7kroy-37" value="Ejecutiva notifica a la arrendadora la resolución" style="whiteSpace=wrap;html=1;fillColor=#F2CC8F;strokeColor=#E07A5F;fontColor=#393C56;rounded=1;" vertex="1" parent="1">
          <mxGeometry x="450" y="740" width="120" height="60" as="geometry" />
        </mxCell>
        <mxCell id="_oelreiNcYr4ekF7kroy-39" value="Elaboración de carta por parte del cliente" style="whiteSpace=wrap;html=1;fillColor=#F2CC8F;strokeColor=#E07A5F;fontColor=#393C56;rounded=1;" vertex="1" parent="1">
          <mxGeometry x="-70" y="970" width="120" height="60" as="geometry" />
        </mxCell>
        <mxCell id="_oelreiNcYr4ekF7kroy-54" style="edgeStyle=orthogonalEdgeStyle;curved=0;rounded=1;sketch=0;orthogonalLoop=1;jettySize=auto;html=1;entryX=0;entryY=0.5;entryDx=0;entryDy=0;fontColor=#393C56;strokeColor=#E07A5F;fillColor=#F2CC8F;" edge="1" parent="1" source="_oelreiNcYr4ekF7kroy-41" target="_oelreiNcYr4ekF7kroy-52">
          <mxGeometry relative="1" as="geometry">
            <Array as="points">
              <mxPoint x="89" y="1530" />
            </Array>
          </mxGeometry>
        </mxCell>
        <mxCell id="_oelreiNcYr4ekF7kroy-41" value="Tabla de valor presente, póliza y contrato de arrendamiento" style="whiteSpace=wrap;html=1;fillColor=#F2CC8F;strokeColor=#E07A5F;fontColor=#393C56;rounded=1;" vertex="1" parent="1">
          <mxGeometry x="29" y="1100" width="120" height="60" as="geometry" />
        </mxCell>
        <mxCell id="_oelreiNcYr4ekF7kroy-107" style="edgeStyle=orthogonalEdgeStyle;curved=0;rounded=1;sketch=0;orthogonalLoop=1;jettySize=auto;html=1;entryX=0.5;entryY=0;entryDx=0;entryDy=0;fontColor=#393C56;strokeColor=#E07A5F;fillColor=#F2CC8F;exitX=0.5;exitY=1;exitDx=0;exitDy=0;" edge="1" parent="1" source="_oelreiNcYr4ekF7kroy-43" target="_oelreiNcYr4ekF7kroy-46">
          <mxGeometry relative="1" as="geometry">
            <Array as="points">
              <mxPoint x="530" y="1180" />
              <mxPoint x="279" y="1180" />
            </Array>
          </mxGeometry>
        </mxCell>
        <mxCell id="_oelreiNcYr4ekF7kroy-43" value="Grabar RUR" style="rounded=1;whiteSpace=wrap;html=1;sketch=0;fontColor=#393C56;strokeColor=#E07A5F;fillColor=#F2CC8F;" vertex="1" parent="1">
          <mxGeometry x="470" y="1040" width="120" height="60" as="geometry" />
        </mxCell>
        <mxCell id="_oelreiNcYr4ekF7kroy-49" value="" style="edgeStyle=orthogonalEdgeStyle;curved=0;rounded=1;sketch=0;orthogonalLoop=1;jettySize=auto;html=1;fontColor=#393C56;strokeColor=#E07A5F;fillColor=#F2CC8F;" edge="1" parent="1" source="_oelreiNcYr4ekF7kroy-46" target="_oelreiNcYr4ekF7kroy-48">
          <mxGeometry relative="1" as="geometry" />
        </mxCell>
        <mxCell id="_oelreiNcYr4ekF7kroy-46" value="Riesgos ingresa números" style="whiteSpace=wrap;html=1;fillColor=#F2CC8F;strokeColor=#E07A5F;fontColor=#393C56;rounded=1;" vertex="1" parent="1">
          <mxGeometry x="219" y="1200" width="120" height="60" as="geometry" />
        </mxCell>
        <mxCell id="_oelreiNcYr4ekF7kroy-51" value="" style="edgeStyle=orthogonalEdgeStyle;curved=0;rounded=1;sketch=0;orthogonalLoop=1;jettySize=auto;html=1;fontColor=#393C56;strokeColor=#E07A5F;fillColor=#F2CC8F;" edge="1" parent="1" source="_oelreiNcYr4ekF7kroy-48" target="_oelreiNcYr4ekF7kroy-50">
          <mxGeometry relative="1" as="geometry" />
        </mxCell>
        <mxCell id="_oelreiNcYr4ekF7kroy-48" value="Legal realiza contrato de factoraje (Summa-Arrendadora)" style="whiteSpace=wrap;html=1;fillColor=#F2CC8F;strokeColor=#E07A5F;fontColor=#393C56;rounded=1;" vertex="1" parent="1">
          <mxGeometry x="219" y="1300" width="120" height="60" as="geometry" />
        </mxCell>
        <mxCell id="_oelreiNcYr4ekF7kroy-53" value="" style="edgeStyle=orthogonalEdgeStyle;curved=0;rounded=1;sketch=0;orthogonalLoop=1;jettySize=auto;html=1;fontColor=#393C56;strokeColor=#E07A5F;fillColor=#F2CC8F;" edge="1" parent="1" source="_oelreiNcYr4ekF7kroy-50" target="_oelreiNcYr4ekF7kroy-52">
          <mxGeometry relative="1" as="geometry" />
        </mxCell>
        <mxCell id="_oelreiNcYr4ekF7kroy-50" value="Firmas y timbres" style="whiteSpace=wrap;html=1;fillColor=#F2CC8F;strokeColor=#E07A5F;fontColor=#393C56;rounded=1;" vertex="1" parent="1">
          <mxGeometry x="219" y="1400" width="120" height="60" as="geometry" />
        </mxCell>
        <mxCell id="_oelreiNcYr4ekF7kroy-56" value="" style="edgeStyle=orthogonalEdgeStyle;curved=0;rounded=1;sketch=0;orthogonalLoop=1;jettySize=auto;html=1;fontColor=#393C56;strokeColor=#E07A5F;fillColor=#F2CC8F;" edge="1" parent="1" source="_oelreiNcYr4ekF7kroy-52" target="_oelreiNcYr4ekF7kroy-55">
          <mxGeometry relative="1" as="geometry" />
        </mxCell>
        <mxCell id="_oelreiNcYr4ekF7kroy-58" value="" style="edgeStyle=orthogonalEdgeStyle;curved=0;rounded=1;sketch=0;orthogonalLoop=1;jettySize=auto;html=1;fontColor=#393C56;strokeColor=#E07A5F;fillColor=#F2CC8F;" edge="1" parent="1" source="_oelreiNcYr4ekF7kroy-52" target="_oelreiNcYr4ekF7kroy-57">
          <mxGeometry relative="1" as="geometry" />
        </mxCell>
        <mxCell id="_oelreiNcYr4ekF7kroy-52" value="Ejecutiva graba movimientos" style="whiteSpace=wrap;html=1;fillColor=#F2CC8F;strokeColor=#E07A5F;fontColor=#393C56;rounded=1;" vertex="1" parent="1">
          <mxGeometry x="219" y="1500" width="120" height="60" as="geometry" />
        </mxCell>
        <mxCell id="_oelreiNcYr4ekF7kroy-61" value="" style="edgeStyle=orthogonalEdgeStyle;curved=0;rounded=1;sketch=0;orthogonalLoop=1;jettySize=auto;html=1;fontColor=#393C56;strokeColor=#E07A5F;fillColor=#F2CC8F;" edge="1" parent="1" source="_oelreiNcYr4ekF7kroy-55" target="_oelreiNcYr4ekF7kroy-60">
          <mxGeometry relative="1" as="geometry" />
        </mxCell>
        <mxCell id="_oelreiNcYr4ekF7kroy-55" value="Desembolso" style="whiteSpace=wrap;html=1;fillColor=#F2CC8F;strokeColor=#E07A5F;fontColor=#393C56;rounded=1;" vertex="1" parent="1">
          <mxGeometry x="139" y="1600" width="120" height="60" as="geometry" />
        </mxCell>
        <mxCell id="_oelreiNcYr4ekF7kroy-62" style="edgeStyle=orthogonalEdgeStyle;curved=0;rounded=1;sketch=0;orthogonalLoop=1;jettySize=auto;html=1;fontColor=#393C56;strokeColor=#E07A5F;fillColor=#F2CC8F;" edge="1" parent="1" source="_oelreiNcYr4ekF7kroy-57" target="_oelreiNcYr4ekF7kroy-60">
          <mxGeometry relative="1" as="geometry" />
        </mxCell>
        <mxCell id="_oelreiNcYr4ekF7kroy-57" value="Cartera ajena (seguro)" style="whiteSpace=wrap;html=1;fillColor=#F2CC8F;strokeColor=#E07A5F;fontColor=#393C56;rounded=1;" vertex="1" parent="1">
          <mxGeometry x="299" y="1600" width="120" height="60" as="geometry" />
        </mxCell>
        <mxCell id="_oelreiNcYr4ekF7kroy-64" value="" style="edgeStyle=orthogonalEdgeStyle;curved=0;rounded=1;sketch=0;orthogonalLoop=1;jettySize=auto;html=1;fontColor=#393C56;strokeColor=#82b366;fillColor=#d5e8d4;" edge="1" parent="1" source="_oelreiNcYr4ekF7kroy-60" target="_oelreiNcYr4ekF7kroy-63">
          <mxGeometry relative="1" as="geometry" />
        </mxCell>
        <mxCell id="_oelreiNcYr4ekF7kroy-60" value="1ra. Aprobación:&lt;br&gt;riesgos / legal" style="whiteSpace=wrap;html=1;fillColor=#d5e8d4;strokeColor=#82b366;rounded=1;fontColor=#393C56;" vertex="1" parent="1">
          <mxGeometry x="219" y="1720" width="120" height="60" as="geometry" />
        </mxCell>
        <mxCell id="_oelreiNcYr4ekF7kroy-66" value="" style="edgeStyle=orthogonalEdgeStyle;curved=0;rounded=1;sketch=0;orthogonalLoop=1;jettySize=auto;html=1;fontColor=#393C56;strokeColor=#E07A5F;fillColor=#F2CC8F;" edge="1" parent="1" source="_oelreiNcYr4ekF7kroy-63" target="_oelreiNcYr4ekF7kroy-65">
          <mxGeometry relative="1" as="geometry" />
        </mxCell>
        <mxCell id="_oelreiNcYr4ekF7kroy-63" value="2da. Aprobación:&lt;br&gt;legal y/o Maribel" style="whiteSpace=wrap;html=1;fillColor=#d5e8d4;strokeColor=#82b366;rounded=1;fontColor=#393C56;" vertex="1" parent="1">
          <mxGeometry x="219" y="1820" width="120" height="60" as="geometry" />
        </mxCell>
        <mxCell id="_oelreiNcYr4ekF7kroy-68" value="" style="edgeStyle=orthogonalEdgeStyle;curved=0;rounded=1;sketch=0;orthogonalLoop=1;jettySize=auto;html=1;fontColor=#393C56;strokeColor=#E07A5F;fillColor=#F2CC8F;" edge="1" parent="1" source="_oelreiNcYr4ekF7kroy-65" target="_oelreiNcYr4ekF7kroy-67">
          <mxGeometry relative="1" as="geometry" />
        </mxCell>
        <mxCell id="_oelreiNcYr4ekF7kroy-65" value="Legal realiza la resolución" style="whiteSpace=wrap;html=1;fillColor=#F2CC8F;strokeColor=#E07A5F;fontColor=#393C56;rounded=1;" vertex="1" parent="1">
          <mxGeometry x="219" y="1920" width="120" height="60" as="geometry" />
        </mxCell>
        <mxCell id="_oelreiNcYr4ekF7kroy-70" value="" style="edgeStyle=orthogonalEdgeStyle;curved=0;rounded=1;sketch=0;orthogonalLoop=1;jettySize=auto;html=1;fontColor=#393C56;strokeColor=#E07A5F;fillColor=#F2CC8F;" edge="1" parent="1" source="_oelreiNcYr4ekF7kroy-67" target="_oelreiNcYr4ekF7kroy-69">
          <mxGeometry relative="1" as="geometry" />
        </mxCell>
        <mxCell id="_oelreiNcYr4ekF7kroy-67" value="Ejecutiva imprime resolución" style="whiteSpace=wrap;html=1;fillColor=#F2CC8F;strokeColor=#E07A5F;fontColor=#393C56;rounded=1;" vertex="1" parent="1">
          <mxGeometry x="219" y="2020" width="120" height="60" as="geometry" />
        </mxCell>
        <mxCell id="_oelreiNcYr4ekF7kroy-74" value="correcciones&lt;br&gt;necesarias" style="edgeStyle=orthogonalEdgeStyle;curved=0;rounded=1;sketch=0;orthogonalLoop=1;jettySize=auto;html=1;fontColor=#393C56;strokeColor=#E07A5F;fillColor=#F2CC8F;" edge="1" parent="1" source="_oelreiNcYr4ekF7kroy-69" target="_oelreiNcYr4ekF7kroy-73">
          <mxGeometry relative="1" as="geometry" />
        </mxCell>
        <mxCell id="_oelreiNcYr4ekF7kroy-78" value="aprueba" style="edgeStyle=orthogonalEdgeStyle;curved=0;rounded=1;sketch=0;orthogonalLoop=1;jettySize=auto;html=1;fontColor=#393C56;strokeColor=#E07A5F;fillColor=#F2CC8F;" edge="1" parent="1" source="_oelreiNcYr4ekF7kroy-69" target="_oelreiNcYr4ekF7kroy-77">
          <mxGeometry relative="1" as="geometry" />
        </mxCell>
        <mxCell id="_oelreiNcYr4ekF7kroy-69" value="Traslado a cartera / operaciones" style="whiteSpace=wrap;html=1;fillColor=#F2CC8F;strokeColor=#E07A5F;fontColor=#393C56;rounded=1;" vertex="1" parent="1">
          <mxGeometry x="219" y="2120" width="120" height="60" as="geometry" />
        </mxCell>
        <mxCell id="_oelreiNcYr4ekF7kroy-75" style="edgeStyle=orthogonalEdgeStyle;curved=0;rounded=1;sketch=0;orthogonalLoop=1;jettySize=auto;html=1;entryX=1;entryY=0.5;entryDx=0;entryDy=0;fontColor=#393C56;strokeColor=#E07A5F;fillColor=#F2CC8F;" edge="1" parent="1" source="_oelreiNcYr4ekF7kroy-73" target="_oelreiNcYr4ekF7kroy-67">
          <mxGeometry relative="1" as="geometry" />
        </mxCell>
        <mxCell id="_oelreiNcYr4ekF7kroy-73" value="Ejecutiva realiza gestiona cambios" style="whiteSpace=wrap;html=1;fillColor=#F2CC8F;strokeColor=#E07A5F;fontColor=#393C56;rounded=1;" vertex="1" parent="1">
          <mxGeometry x="419" y="2020" width="120" height="60" as="geometry" />
        </mxCell>
        <mxCell id="_oelreiNcYr4ekF7kroy-80" value="" style="edgeStyle=orthogonalEdgeStyle;curved=0;rounded=1;sketch=0;orthogonalLoop=1;jettySize=auto;html=1;fontColor=#393C56;strokeColor=#E07A5F;fillColor=#F2CC8F;" edge="1" parent="1" source="_oelreiNcYr4ekF7kroy-77" target="_oelreiNcYr4ekF7kroy-79">
          <mxGeometry relative="1" as="geometry" />
        </mxCell>
        <mxCell id="_oelreiNcYr4ekF7kroy-77" value="Traslado de indicaciones a pagos" style="whiteSpace=wrap;html=1;fillColor=#F2CC8F;strokeColor=#E07A5F;fontColor=#393C56;rounded=1;" vertex="1" parent="1">
          <mxGeometry x="219" y="2250" width="120" height="60" as="geometry" />
        </mxCell>
        <mxCell id="_oelreiNcYr4ekF7kroy-82" value="" style="edgeStyle=orthogonalEdgeStyle;curved=0;rounded=1;sketch=0;orthogonalLoop=1;jettySize=auto;html=1;fontColor=#393C56;strokeColor=#82b366;fillColor=#d5e8d4;" edge="1" parent="1" source="_oelreiNcYr4ekF7kroy-79" target="_oelreiNcYr4ekF7kroy-81">
          <mxGeometry relative="1" as="geometry" />
        </mxCell>
        <mxCell id="_oelreiNcYr4ekF7kroy-79" value="1ra. Aprobación:&lt;br&gt;Jorge o Maribel" style="whiteSpace=wrap;html=1;fillColor=#d5e8d4;strokeColor=#82b366;rounded=1;fontColor=#393C56;" vertex="1" parent="1">
          <mxGeometry x="219" y="2350" width="120" height="60" as="geometry" />
        </mxCell>
        <mxCell id="_oelreiNcYr4ekF7kroy-84" value="" style="edgeStyle=orthogonalEdgeStyle;curved=0;rounded=1;sketch=0;orthogonalLoop=1;jettySize=auto;html=1;fontColor=#393C56;strokeColor=#E07A5F;fillColor=#F2CC8F;" edge="1" parent="1" source="_oelreiNcYr4ekF7kroy-81" target="_oelreiNcYr4ekF7kroy-83">
          <mxGeometry relative="1" as="geometry" />
        </mxCell>
        <mxCell id="_oelreiNcYr4ekF7kroy-86" value="" style="edgeStyle=orthogonalEdgeStyle;curved=0;rounded=1;sketch=0;orthogonalLoop=1;jettySize=auto;html=1;fontColor=#393C56;strokeColor=#E07A5F;fillColor=#F2CC8F;" edge="1" parent="1" source="_oelreiNcYr4ekF7kroy-81" target="_oelreiNcYr4ekF7kroy-85">
          <mxGeometry relative="1" as="geometry" />
        </mxCell>
        <mxCell id="_oelreiNcYr4ekF7kroy-102" value="" style="edgeStyle=orthogonalEdgeStyle;curved=0;rounded=1;sketch=0;orthogonalLoop=1;jettySize=auto;html=1;fontColor=#393C56;strokeColor=#E07A5F;fillColor=#F2CC8F;" edge="1" parent="1" source="_oelreiNcYr4ekF7kroy-81" target="_oelreiNcYr4ekF7kroy-85">
          <mxGeometry relative="1" as="geometry" />
        </mxCell>
        <mxCell id="_oelreiNcYr4ekF7kroy-81" value="2da. Aprobación:&lt;br&gt;María O. o Elder" style="whiteSpace=wrap;html=1;fillColor=#d5e8d4;strokeColor=#82b366;rounded=1;fontColor=#393C56;" vertex="1" parent="1">
          <mxGeometry x="219" y="2450" width="120" height="60" as="geometry" />
        </mxCell>
        <mxCell id="_oelreiNcYr4ekF7kroy-88" value="" style="edgeStyle=orthogonalEdgeStyle;curved=0;rounded=1;sketch=0;orthogonalLoop=1;jettySize=auto;html=1;fontColor=#393C56;strokeColor=#E07A5F;fillColor=#F2CC8F;" edge="1" parent="1" source="_oelreiNcYr4ekF7kroy-83" target="_oelreiNcYr4ekF7kroy-87">
          <mxGeometry relative="1" as="geometry" />
        </mxCell>
        <mxCell id="_oelreiNcYr4ekF7kroy-83" value="ACH a arrendadora" style="whiteSpace=wrap;html=1;fillColor=#F2CC8F;strokeColor=#E07A5F;fontColor=#393C56;rounded=1;" vertex="1" parent="1">
          <mxGeometry x="139" y="2570" width="120" height="60" as="geometry" />
        </mxCell>
        <mxCell id="_oelreiNcYr4ekF7kroy-89" style="edgeStyle=orthogonalEdgeStyle;curved=0;rounded=1;sketch=0;orthogonalLoop=1;jettySize=auto;html=1;entryX=0.5;entryY=0;entryDx=0;entryDy=0;fontColor=#393C56;strokeColor=#E07A5F;fillColor=#F2CC8F;" edge="1" parent="1" source="_oelreiNcYr4ekF7kroy-85" target="_oelreiNcYr4ekF7kroy-87">
          <mxGeometry relative="1" as="geometry" />
        </mxCell>
        <mxCell id="_oelreiNcYr4ekF7kroy-85" value="Emisión de cheque a favor de arrendadora" style="whiteSpace=wrap;html=1;fillColor=#F2CC8F;strokeColor=#E07A5F;fontColor=#393C56;rounded=1;" vertex="1" parent="1">
          <mxGeometry x="299" y="2570" width="120" height="60" as="geometry" />
        </mxCell>
        <mxCell id="_oelreiNcYr4ekF7kroy-91" value="" style="edgeStyle=orthogonalEdgeStyle;curved=0;rounded=1;sketch=0;orthogonalLoop=1;jettySize=auto;html=1;fontColor=#393C56;strokeColor=#E07A5F;fillColor=#F2CC8F;" edge="1" parent="1" source="_oelreiNcYr4ekF7kroy-87" target="_oelreiNcYr4ekF7kroy-90">
          <mxGeometry relative="1" as="geometry" />
        </mxCell>
        <mxCell id="_oelreiNcYr4ekF7kroy-87" value="Cobros" style="whiteSpace=wrap;html=1;fillColor=#F2CC8F;strokeColor=#E07A5F;fontColor=#393C56;rounded=1;" vertex="1" parent="1">
          <mxGeometry x="219" y="2670" width="120" height="60" as="geometry" />
        </mxCell>
        <mxCell id="_oelreiNcYr4ekF7kroy-92" style="edgeStyle=orthogonalEdgeStyle;curved=0;rounded=1;sketch=0;orthogonalLoop=1;jettySize=auto;html=1;entryX=1;entryY=0.5;entryDx=0;entryDy=0;fontColor=#393C56;strokeColor=#E07A5F;fillColor=#F2CC8F;exitX=1;exitY=0.5;exitDx=0;exitDy=0;" edge="1" parent="1" source="_oelreiNcYr4ekF7kroy-90" target="_oelreiNcYr4ekF7kroy-87">
          <mxGeometry relative="1" as="geometry">
            <mxPoint x="339" y="2800" as="sourcePoint" />
            <Array as="points">
              <mxPoint x="399" y="2700" />
            </Array>
          </mxGeometry>
        </mxCell>
        <mxCell id="_oelreiNcYr4ekF7kroy-94" value="" style="edgeStyle=orthogonalEdgeStyle;curved=0;rounded=1;sketch=0;orthogonalLoop=1;jettySize=auto;html=1;fontColor=#393C56;strokeColor=#E07A5F;fillColor=#F2CC8F;" edge="1" parent="1" source="_oelreiNcYr4ekF7kroy-90" target="_oelreiNcYr4ekF7kroy-93">
          <mxGeometry relative="1" as="geometry" />
        </mxCell>
        <mxCell id="_oelreiNcYr4ekF7kroy-90" value="Correo a cliente CC a arrendadora" style="whiteSpace=wrap;html=1;fillColor=#F2CC8F;strokeColor=#E07A5F;fontColor=#393C56;rounded=1;" vertex="1" parent="1">
          <mxGeometry x="219" y="2770" width="120" height="60" as="geometry" />
        </mxCell>
        <mxCell id="_oelreiNcYr4ekF7kroy-106" style="edgeStyle=orthogonalEdgeStyle;curved=0;rounded=1;sketch=0;orthogonalLoop=1;jettySize=auto;html=1;entryX=0.5;entryY=0;entryDx=0;entryDy=0;entryPerimeter=0;fontColor=#393C56;strokeColor=#E07A5F;fillColor=#F2CC8F;" edge="1" parent="1" source="_oelreiNcYr4ekF7kroy-93" target="_oelreiNcYr4ekF7kroy-105">
          <mxGeometry relative="1" as="geometry" />
        </mxCell>
        <mxCell id="_oelreiNcYr4ekF7kroy-93" value="Cancelación de opción de compra" style="whiteSpace=wrap;html=1;fillColor=#F2CC8F;strokeColor=#E07A5F;fontColor=#393C56;rounded=1;" vertex="1" parent="1">
          <mxGeometry x="219" y="2870" width="120" height="60" as="geometry" />
        </mxCell>
        <mxCell id="_oelreiNcYr4ekF7kroy-95" value="" style="strokeWidth=1;html=1;shape=mxgraph.flowchart.annotation_2;align=left;labelPosition=right;pointerEvents=1;rounded=1;sketch=0;fillColor=#d5e8d4;strokeColor=#82b366;" vertex="1" parent="1">
          <mxGeometry x="170" y="2340" width="50" height="180" as="geometry" />
        </mxCell>
        <mxCell id="_oelreiNcYr4ekF7kroy-101" value="Proceso que se podría realizar en paralelo" style="text;html=1;strokeColor=none;fillColor=none;align=center;verticalAlign=middle;whiteSpace=wrap;rounded=0;sketch=0;fontColor=#393C56;" vertex="1" parent="1">
          <mxGeometry x="50" y="2402.5" width="120" height="55" as="geometry" />
        </mxCell>
        <mxCell id="_oelreiNcYr4ekF7kroy-103" value="" style="strokeWidth=1;html=1;shape=mxgraph.flowchart.annotation_2;align=left;labelPosition=right;pointerEvents=1;rounded=1;sketch=0;fillColor=#d5e8d4;strokeColor=#82b366;" vertex="1" parent="1">
          <mxGeometry x="170" y="1710" width="50" height="180" as="geometry" />
        </mxCell>
        <mxCell id="_oelreiNcYr4ekF7kroy-104" value="Proceso que se podría realizar en paralelo" style="text;html=1;strokeColor=none;fillColor=none;align=center;verticalAlign=middle;whiteSpace=wrap;rounded=0;sketch=0;fontColor=#393C56;" vertex="1" parent="1">
          <mxGeometry x="50" y="1774" width="120" height="55" as="geometry" />
        </mxCell>
        <mxCell id="_oelreiNcYr4ekF7kroy-105" value="Finalización de la operación" style="strokeWidth=1;html=1;shape=mxgraph.flowchart.terminator;whiteSpace=wrap;rounded=1;sketch=0;fillColor=#e1d5e7;strokeColor=#9673a6;fontColor=#393C56;" vertex="1" parent="1">
          <mxGeometry x="229" y="2960" width="100" height="60" as="geometry" />
        </mxCell>
        <mxCell id="_oelreiNcYr4ekF7kroy-110" value="Comité de activos &lt;br&gt;y pasivos (Alco)" style="rhombus;whiteSpace=wrap;html=1;sketch=0;strokeColor=#7E8C9A;fillColor=#AFC4DA;fontColor=#393C56;" vertex="1" parent="1">
          <mxGeometry x="210" y="730" width="140" height="80" as="geometry" />
        </mxCell>
        <mxCell id="_oelreiNcYr4ekF7kroy-136" style="edgeStyle=orthogonalEdgeStyle;curved=0;sketch=0;orthogonalLoop=1;jettySize=auto;html=1;entryX=0;entryY=0.5;entryDx=0;entryDy=0;entryPerimeter=0;fontColor=#393C56;strokeColor=#E07A5F;fillColor=#F2CC8F;exitX=0.5;exitY=0;exitDx=0;exitDy=0;endArrow=none;endFill=0;" edge="1" parent="1" source="_oelreiNcYr4ekF7kroy-113" target="_oelreiNcYr4ekF7kroy-122">
          <mxGeometry relative="1" as="geometry">
            <Array as="points">
              <mxPoint x="590" y="370" />
            </Array>
          </mxGeometry>
        </mxCell>
        <mxCell id="_oelreiNcYr4ekF7kroy-113" value="Documentación P. Jurídica" style="swimlane;fontStyle=0;childLayout=stackLayout;horizontal=1;startSize=30;horizontalStack=0;resizeParent=1;resizeParentMax=0;resizeLast=0;collapsible=1;marginBottom=0;sketch=0;fontColor=#393C56;strokeColor=#E07A5F;strokeWidth=1;fillColor=#AFC4DA;" vertex="1" collapsed="1" parent="1">
          <mxGeometry x="500" y="430" width="180" height="30" as="geometry">
            <mxRectangle x="500" y="430" width="260" height="270" as="alternateBounds" />
          </mxGeometry>
        </mxCell>
        <mxCell id="_oelreiNcYr4ekF7kroy-114" value="DPI / Pasaporte vigentes    " style="text;strokeColor=none;fillColor=none;align=left;verticalAlign=middle;spacingLeft=4;spacingRight=4;overflow=hidden;points=[[0,0.5],[1,0.5]];portConstraint=eastwest;rotatable=0;sketch=0;fontColor=#393C56;" vertex="1" parent="_oelreiNcYr4ekF7kroy-113">
          <mxGeometry y="30" width="260" height="30" as="geometry" />
        </mxCell>
        <mxCell id="_oelreiNcYr4ekF7kroy-115" value="DPI accionistas" style="text;strokeColor=none;fillColor=none;align=left;verticalAlign=middle;spacingLeft=4;spacingRight=4;overflow=hidden;points=[[0,0.5],[1,0.5]];portConstraint=eastwest;rotatable=0;sketch=0;fontColor=#393C56;" vertex="1" parent="_oelreiNcYr4ekF7kroy-113">
          <mxGeometry y="60" width="260" height="30" as="geometry" />
        </mxCell>
        <mxCell id="_oelreiNcYr4ekF7kroy-116" value="Escritura de constitución y /o modificaciones" style="text;strokeColor=none;fillColor=none;align=left;verticalAlign=middle;spacingLeft=4;spacingRight=4;overflow=hidden;points=[[0,0.5],[1,0.5]];portConstraint=eastwest;rotatable=0;sketch=0;fontColor=#393C56;" vertex="1" parent="_oelreiNcYr4ekF7kroy-113">
          <mxGeometry y="90" width="260" height="30" as="geometry" />
        </mxCell>
        <mxCell id="_oelreiNcYr4ekF7kroy-117" value="Patentes" style="text;strokeColor=none;fillColor=none;align=left;verticalAlign=middle;spacingLeft=4;spacingRight=4;overflow=hidden;points=[[0,0.5],[1,0.5]];portConstraint=eastwest;rotatable=0;sketch=0;fontColor=#393C56;" vertex="1" parent="_oelreiNcYr4ekF7kroy-113">
          <mxGeometry y="120" width="260" height="30" as="geometry" />
        </mxCell>
        <mxCell id="_oelreiNcYr4ekF7kroy-118" value="Recibo de agua o luz (no mas de 2 meses)" style="text;strokeColor=none;fillColor=none;align=left;verticalAlign=middle;spacingLeft=4;spacingRight=4;overflow=hidden;points=[[0,0.5],[1,0.5]];portConstraint=eastwest;rotatable=0;sketch=0;fontColor=#393C56;" vertex="1" parent="_oelreiNcYr4ekF7kroy-113">
          <mxGeometry y="150" width="260" height="30" as="geometry" />
        </mxCell>
        <mxCell id="_oelreiNcYr4ekF7kroy-120" value="RTU " style="text;strokeColor=none;fillColor=none;align=left;verticalAlign=middle;spacingLeft=4;spacingRight=4;overflow=hidden;points=[[0,0.5],[1,0.5]];portConstraint=eastwest;rotatable=0;sketch=0;fontColor=#393C56;" vertex="1" parent="_oelreiNcYr4ekF7kroy-113">
          <mxGeometry y="180" width="260" height="30" as="geometry" />
        </mxCell>
        <mxCell id="_oelreiNcYr4ekF7kroy-119" value="ISR" style="text;strokeColor=none;fillColor=none;align=left;verticalAlign=middle;spacingLeft=4;spacingRight=4;overflow=hidden;points=[[0,0.5],[1,0.5]];portConstraint=eastwest;rotatable=0;sketch=0;fontColor=#393C56;" vertex="1" parent="_oelreiNcYr4ekF7kroy-113">
          <mxGeometry y="210" width="260" height="30" as="geometry" />
        </mxCell>
        <mxCell id="_oelreiNcYr4ekF7kroy-121" value="Nombramiento" style="text;strokeColor=none;fillColor=none;align=left;verticalAlign=middle;spacingLeft=4;spacingRight=4;overflow=hidden;points=[[0,0.5],[1,0.5]];portConstraint=eastwest;rotatable=0;sketch=0;fontColor=#393C56;" vertex="1" parent="_oelreiNcYr4ekF7kroy-113">
          <mxGeometry y="240" width="260" height="30" as="geometry" />
        </mxCell>
        <mxCell id="_oelreiNcYr4ekF7kroy-122" value="" style="strokeWidth=1;html=1;shape=mxgraph.flowchart.annotation_2;align=left;labelPosition=right;pointerEvents=1;sketch=0;fillColor=#d5e8d4;strokeColor=#E07A5F;rotation=-180;" vertex="1" parent="1">
          <mxGeometry x="420" y="330" width="59" height="80" as="geometry" />
        </mxCell>
        <mxCell id="_oelreiNcYr4ekF7kroy-139" style="edgeStyle=orthogonalEdgeStyle;curved=0;sketch=0;orthogonalLoop=1;jettySize=auto;html=1;entryX=0;entryY=0.5;entryDx=0;entryDy=0;entryPerimeter=0;fontColor=#393C56;strokeColor=#E07A5F;fillColor=#F2CC8F;exitX=0.5;exitY=0;exitDx=0;exitDy=0;endArrow=none;endFill=0;" edge="1" parent="1" source="_oelreiNcYr4ekF7kroy-124" target="_oelreiNcYr4ekF7kroy-122">
          <mxGeometry relative="1" as="geometry">
            <mxPoint x="890" y="350" as="sourcePoint" />
            <Array as="points">
              <mxPoint x="855" y="370" />
            </Array>
          </mxGeometry>
        </mxCell>
        <mxCell id="_oelreiNcYr4ekF7kroy-124" value="Documentación P. Indiividual" style="swimlane;fontStyle=0;childLayout=stackLayout;horizontal=1;startSize=30;horizontalStack=0;resizeParent=1;resizeParentMax=0;resizeLast=0;collapsible=1;marginBottom=0;sketch=0;fontColor=#393C56;strokeColor=#E07A5F;strokeWidth=1;fillColor=#AFC4DA;" vertex="1" collapsed="1" parent="1">
          <mxGeometry x="770" y="430" width="170" height="30" as="geometry">
            <mxRectangle x="770" y="430" width="260" height="270" as="alternateBounds" />
          </mxGeometry>
        </mxCell>
        <mxCell id="_oelreiNcYr4ekF7kroy-125" value="DPI / Pasaporte vigentes    " style="text;strokeColor=none;fillColor=none;align=left;verticalAlign=middle;spacingLeft=4;spacingRight=4;overflow=hidden;points=[[0,0.5],[1,0.5]];portConstraint=eastwest;rotatable=0;sketch=0;fontColor=#393C56;" vertex="1" parent="_oelreiNcYr4ekF7kroy-124">
          <mxGeometry y="30" width="260" height="30" as="geometry" />
        </mxCell>
        <mxCell id="_oelreiNcYr4ekF7kroy-126" value="DPI accionistas" style="text;strokeColor=none;fillColor=none;align=left;verticalAlign=middle;spacingLeft=4;spacingRight=4;overflow=hidden;points=[[0,0.5],[1,0.5]];portConstraint=eastwest;rotatable=0;sketch=0;fontColor=#393C56;" vertex="1" parent="_oelreiNcYr4ekF7kroy-124">
          <mxGeometry y="60" width="260" height="30" as="geometry" />
        </mxCell>
        <mxCell id="_oelreiNcYr4ekF7kroy-127" value="Escritura de constitución y /o modificaciones" style="text;strokeColor=none;fillColor=none;align=left;verticalAlign=middle;spacingLeft=4;spacingRight=4;overflow=hidden;points=[[0,0.5],[1,0.5]];portConstraint=eastwest;rotatable=0;sketch=0;fontColor=#393C56;" vertex="1" parent="_oelreiNcYr4ekF7kroy-124">
          <mxGeometry y="90" width="260" height="30" as="geometry" />
        </mxCell>
        <mxCell id="_oelreiNcYr4ekF7kroy-128" value="Patentes" style="text;strokeColor=none;fillColor=none;align=left;verticalAlign=middle;spacingLeft=4;spacingRight=4;overflow=hidden;points=[[0,0.5],[1,0.5]];portConstraint=eastwest;rotatable=0;sketch=0;fontColor=#393C56;" vertex="1" parent="_oelreiNcYr4ekF7kroy-124">
          <mxGeometry y="120" width="260" height="30" as="geometry" />
        </mxCell>
        <mxCell id="_oelreiNcYr4ekF7kroy-129" value="Recibo de agua o luz (no mas de 2 meses)" style="text;strokeColor=none;fillColor=none;align=left;verticalAlign=middle;spacingLeft=4;spacingRight=4;overflow=hidden;points=[[0,0.5],[1,0.5]];portConstraint=eastwest;rotatable=0;sketch=0;fontColor=#393C56;" vertex="1" parent="_oelreiNcYr4ekF7kroy-124">
          <mxGeometry y="150" width="260" height="30" as="geometry" />
        </mxCell>
        <mxCell id="_oelreiNcYr4ekF7kroy-130" value="RTU " style="text;strokeColor=none;fillColor=none;align=left;verticalAlign=middle;spacingLeft=4;spacingRight=4;overflow=hidden;points=[[0,0.5],[1,0.5]];portConstraint=eastwest;rotatable=0;sketch=0;fontColor=#393C56;" vertex="1" parent="_oelreiNcYr4ekF7kroy-124">
          <mxGeometry y="180" width="260" height="30" as="geometry" />
        </mxCell>
        <mxCell id="_oelreiNcYr4ekF7kroy-131" value="ISR" style="text;strokeColor=none;fillColor=none;align=left;verticalAlign=middle;spacingLeft=4;spacingRight=4;overflow=hidden;points=[[0,0.5],[1,0.5]];portConstraint=eastwest;rotatable=0;sketch=0;fontColor=#393C56;" vertex="1" parent="_oelreiNcYr4ekF7kroy-124">
          <mxGeometry y="210" width="260" height="30" as="geometry" />
        </mxCell>
        <mxCell id="_oelreiNcYr4ekF7kroy-132" value="Nombramiento" style="text;strokeColor=none;fillColor=none;align=left;verticalAlign=middle;spacingLeft=4;spacingRight=4;overflow=hidden;points=[[0,0.5],[1,0.5]];portConstraint=eastwest;rotatable=0;sketch=0;fontColor=#393C56;" vertex="1" parent="_oelreiNcYr4ekF7kroy-124">
          <mxGeometry y="240" width="260" height="30" as="geometry" />
        </mxCell>
      </root>
    </mxGraphModel>
  </diagram>
</mxfile>
